<?xml version="1.0" encoding="utf-8"?>
<!-- Generator: Adobe Illustrator 22.0.1, SVG Export Plug-In . SVG Version: 6.00 Build 0)  -->
<svg version="1.1" id="Layer_1" xmlns="http://www.w3.org/2000/svg" xmlns:xlink="http://www.w3.org/1999/xlink" x="0px" y="0px"
	 viewBox="0 0 24 24" style="enable-background:new 0 0 24 24;" xml:space="preserve">
<style type="text/css">
	.st0{fill:none;}
</style>
<path class="st0" d="M0,0h24v24H0V0z"/>
<path class="st0" d="M-1.6-1.1h26.8v26.8H-1.6V-1.1z"/>
<path class="st0" d="M0,0h24v24H0V0z"/>
<path d="M16.8,20.2h-10c-0.2,0-0.5,0-0.7-0.1c-0.4-0.1-0.9-0.3-1.2-0.5c-0.5-0.4-1-0.9-1.2-1.5c-0.1-0.2-0.2-0.4-0.2-0.6
	c0-0.2-0.1-0.5-0.1-0.7v-10c0-0.2,0-0.5,0.1-0.7C3.5,5.7,3.7,5.2,4,4.9c0.4-0.5,0.9-1,1.5-1.2c0.2-0.1,0.4-0.2,0.6-0.2
	c0.2,0,0.5-0.1,0.7-0.1h10c0.2,0,0.5,0,0.7,0.1c0.4,0.1,0.9,0.3,1.2,0.5c0.5,0.4,1,0.9,1.2,1.5c0.1,0.2,0.2,0.4,0.2,0.6
	c0,0.2,0.1,0.5,0.1,0.7v10c0,0.2,0,0.5-0.1,0.7c-0.1,0.4-0.3,0.9-0.5,1.2c-0.4,0.5-0.9,1-1.5,1.2c-0.2,0.1-0.4,0.2-0.6,0.2
	C17.2,20.2,17,20.2,16.8,20.2z M6.8,11c-0.2,0-0.4,0.2-0.4,0.4c0,0,0,0,0,0v0.8c0,0.2,0.2,0.4,0.4,0.4c0,0,0,0,0,0H11v4.2
	c0,0.2,0.2,0.4,0.4,0.4c0,0,0,0,0,0h0.8c0.2,0,0.4-0.2,0.4-0.4c0,0,0,0,0,0v-4.2h4.2c0.2,0,0.4-0.2,0.4-0.4c0,0,0,0,0,0l-0.1-1
	C16.9,11,16.8,11,16.7,11h-4.2V6.8c0-0.2-0.2-0.4-0.4-0.4c0,0,0,0,0,0h-0.8c-0.2,0-0.4,0.2-0.4,0.4c0,0,0,0,0,0V11H6.8z"/>
</svg>
