<svg xmlns="http://www.w3.org/2000/svg" viewBox="805 361 537 537">
  <path id="Subtraction_1" data-name="Subtraction 1" d="M428,537H109a109.807,109.807,0,0,1-21.967-2.214,108.4,108.4,0,0,1-38.976-16.4A109.319,109.319,0,0,1,8.566,470.428a108.455,108.455,0,0,1-6.351-20.46A109.807,109.807,0,0,1,0,428V109A109.808,109.808,0,0,1,2.214,87.033a108.4,108.4,0,0,1,16.4-38.976A109.318,109.318,0,0,1,66.572,8.566a108.452,108.452,0,0,1,20.46-6.351A109.808,109.808,0,0,1,109,0H428a109.807,109.807,0,0,1,21.967,2.214,108.4,108.4,0,0,1,38.975,16.4,109.319,109.319,0,0,1,39.491,47.957,108.461,108.461,0,0,1,6.351,20.46A109.807,109.807,0,0,1,537,109V428a109.8,109.8,0,0,1-2.214,21.967,108.4,108.4,0,0,1-16.4,38.975,109.32,109.32,0,0,1-47.957,39.491,108.458,108.458,0,0,1-20.46,6.351A109.8,109.8,0,0,1,428,537ZM109.551,243.892A11.757,11.757,0,0,0,97.338,256.1V280.53a11.757,11.757,0,0,0,12.213,12.213H243.892V427.084A11.757,11.757,0,0,0,256.1,439.3H280.53a11.757,11.757,0,0,0,12.213-12.213V292.743H427.084A11.757,11.757,0,0,0,439.3,280.53l-3.434-33.2a11.942,11.942,0,0,0-8.779-3.434H292.743V109.551A11.757,11.757,0,0,0,280.53,97.338H256.1a11.757,11.757,0,0,0-12.213,12.213V243.892Z" transform="translate(805 361)"/>
</svg>
