<svg enable-background="new 0 0 96 96" id="square_subract" version="1.1" viewBox="0 0 96 96" width="96px" xml:space="preserve" xmlns="http://www.w3.org/2000/svg" xmlns:xlink="http://www.w3.org/1999/xlink"><path d="M80,4H16C9.37,4,4,9.37,4,16v64c0,6.63,5.37,12,12,12h64c6.63,0,12-5.37,12-12V16C92,9.37,86.63,4,80,4z M84,80  c0,2.21-1.79,4-4,4H16c-2.21,0-4-1.79-4-4V16c0-2.21,1.79-4,4-4h64c2.21,0,4,1.79,4,4V80z"/><path d="M68,48c0,2.209-1.791,4-4,4H32c-2.209,0-4-1.791-4-4l0,0c0-2.209,1.791-4,4-4h32C66.209,44,68,45.791,68,48L68,48z"/></svg>