<svg xmlns="http://www.w3.org/2000/svg" xmlns:xlink="http://www.w3.org/1999/xlink" viewBox="755 526 54 54">
  <defs>
    <style>
      .cls-1 {
        fill: #fff;
      }

      .cls-2 {
        filter: url(#Path_1);
      }
    </style>
    <filter id="Path_1" x="755" y="526" width="54" height="54" filterUnits="userSpaceOnUse">
      <feOffset dy="3" input="SourceAlpha"/>
      <feGaussianBlur stdDeviation="3" result="blur"/>
      <feFlood flood-opacity="0.01"/>
      <feComposite operator="in" in2="blur"/>
      <feComposite in="SourceGraphic"/>
    </filter>
  </defs>
  <g class="cls-2" transform="matrix(1, 0, 0, 1, 0, 0)">
    <path id="Path_1-2" data-name="Path 1" class="cls-1" d="M33,3H24a2.986,2.986,0,0,0-2.121.879l-18,18a3,3,0,0,0,0,4.242l12,12a3,3,0,0,0,4.242,0l18-18A2.986,2.986,0,0,0,39,18V9A6,6,0,0,0,33,3Zm0,9a3,3,0,1,1,3-3A3,3,0,0,1,33,12Z" transform="translate(761 571) rotate(-90)"/>
  </g>
</svg>
