<?xml version="1.0" encoding="utf-8"?>
<!-- Generator: Adobe Illustrator 22.0.1, SVG Export Plug-In . SVG Version: 6.00 Build 0)  -->
<svg version="1.1" id="Layer_1" xmlns="http://www.w3.org/2000/svg" xmlns:xlink="http://www.w3.org/1999/xlink" x="0px" y="0px"
	 viewBox="0 0 24 24" style="enable-background:new 0 0 24 24;" xml:space="preserve">
<style type="text/css">
	.st0{fill:none;}
	.st1{fill:#929292;}
</style>
<path class="st0" d="M0,0h24v24H0V0z"/>
<g id="Page-1">
	<g id="icon-146-tag">
		<path id="tag" class="st1" d="M10.5,2.8H4c-0.9,0-1.6,0.7-1.6,1.6v6.5l10.9,10.9c0.6,0.6,1.7,0.6,2.3,0l5.9-5.9
			c0.6-0.6,0.6-1.7,0-2.3L10.5,2.8L10.5,2.8z M6.9,8.5c0.7,0,1.2-0.5,1.2-1.2S7.5,6,6.9,6S5.6,6.6,5.6,7.2S6.2,8.5,6.9,8.5L6.9,8.5z
			"/>
	</g>
</g>
</svg>
