<?xml version="1.0" encoding="utf-8"?>
<!-- Generator: Adobe Illustrator 22.1.0, SVG Export Plug-In . SVG Version: 6.00 Build 0)  -->
<svg version="1.1" id="Layer_1" xmlns="http://www.w3.org/2000/svg" xmlns:xlink="http://www.w3.org/1999/xlink" x="0px" y="0px"
	 viewBox="0 0 128 128" style="enable-background:new 0 0 128 128;" xml:space="preserve">
<style type="text/css">
	.st0{fill:#033076;}
</style>
<path class="st0" d="M64.3,84.3c-15.5,0-28.2-12.6-28.2-28.2V42.2C36.1,26.7,48.7,14,64.3,14c15.5,0,28.2,12.6,28.2,28.2v13.9
	C92.5,71.6,79.8,84.3,64.3,84.3z M64.3,18c-13.3,0-24.2,10.9-24.2,24.2v13.9c0,13.3,10.8,24.2,24.2,24.2c13.3,0,24.2-10.8,24.2-24.2
	V42.2C88.5,28.9,77.6,18,64.3,18z"/>
<path class="st0" d="M102.3,114H25.8c-6.5,0-11.8-5.3-11.8-11.8v-8.7c0-3.9,2-9,11.3-11.7l11.4-3.2c1.1-0.3,2.2,0.3,2.5,1.4
	s-0.3,2.2-1.4,2.5l-11.4,3.2C18,88,18,92.1,18,93.5v8.7c0,4.3,3.5,7.8,7.8,7.8h76.5c4.3,0,7.8-3.5,7.8-7.8v-8.7
	c0-3.6-2.8-6.3-8.4-7.9l-10.9-3c-1.1-0.3-1.7-1.4-1.4-2.5c0.3-1.1,1.4-1.7,2.5-1.4l10.9,3c9.3,2.7,11.3,7.9,11.3,11.7v8.7
	C114.2,108.7,108.8,114,102.3,114z"/>
</svg>
